# xmcd
#
# Track frame offsets:
#	150
#	9926
#	20841
#	31306
#	43606
#	55047
#	68707
#	82368
#	94903
#	106043
#
# Disc length: 1527 seconds
#
# Revision: 1
# Processed by: cddbd v1.4PL0 Copyright (c) Steve Scherf et al.
# Submitted via: audiograbber 1.80.04
#
DISCID=7805f50a
DTITLE=Moe Bandy - The Best Of
DYEAR=1999
DGENRE=Country
TTITLE0=Hey Joe
TTITLE1=Good Ole Man
TTITLE2=Tell Ole I Ain't Here
TTITLE3=Honky Tonk Queen
TTITLE4=Just Good Old Boys
TTITLE5=Where's The Dress
TTITLE6=Still On A Roll
TTITLE7=Holding the Bag
TTITLE8=Thank Goodness It's Friday
TTITLE9=Honky Tonk Man
EXTD=
EXTT0=
EXTT1=
EXTT2=
EXTT3=
EXTT4=
EXTT5=
EXTT6=
EXTT7=
EXTT8=
EXTT9=
PLAYORDER=
